<svg width="44" height="44" viewBox="0 0 44 44" fill="none" xmlns="http://www.w3.org/2000/svg">
<g clip-path="url(#clip0)">
<rect width="44" height="44" fill="white"/>
<g clip-path="url(#clip1)">
<path d="M19.7085 18.8753C19.7085 20.3788 18.9839 21.5019 17.408 21.5019C17.2087 21.5019 17.0457 21.5019 16.9008 21.4475V16.4841C17.1 16.4117 17.3718 16.3573 17.6616 16.3573C19.147 16.3573 19.7085 17.4623 19.7085 18.8753ZM44 7.60807V36.41C44 40.6126 40.5945 44.0181 36.3919 44.0181H7.60807C3.40552 44.0181 0 40.6126 0 36.41V7.60807C0 3.40552 3.40552 0 7.60807 0H36.41C40.5945 0 44 3.40552 44 7.60807ZM22.8242 18.6035C22.8242 17.245 22.3895 15.9045 21.4294 15.0531C20.3788 14.0749 18.9115 13.8032 17.0457 13.8032C15.8501 13.8213 14.6546 13.9481 13.767 14.1293V30.0338H16.9008V24.0198C17.1 24.0198 17.2993 24.0198 17.5167 24.0198C18.8028 24.0198 20.4331 23.5488 21.4475 22.48C22.2989 21.5743 22.8242 20.3606 22.8242 18.6035ZM30.233 26.4833C30.233 25.1429 29.5809 23.9292 27.86 22.9329C26.755 22.2808 26.5014 21.9909 26.5014 21.4656C26.5014 20.9403 26.8818 20.4512 27.6789 20.4512C28.2948 20.4512 28.8563 20.6686 29.3092 20.9222L29.8526 18.6217C29.2367 18.3318 28.4578 18.0963 27.4796 18.0963C25.1247 18.0963 23.6212 19.6723 23.6212 21.7917C23.6212 22.8604 24.0741 24.0922 25.9942 25.161C27.0268 25.7587 27.3528 26.1392 27.3528 26.7369C27.3528 27.4253 26.9 27.7876 26.0848 27.7876C25.2878 27.7876 24.4364 27.4434 23.9835 27.1717L23.4039 29.4722C23.9473 29.8707 25.1066 30.1424 26.0848 30.1424C28.5121 30.1787 30.233 28.8925 30.233 26.4833Z" fill="#00B5DC"/>
</g>
</g>
<defs>
<clipPath id="clip0">
<rect width="44" height="44" fill="white"/>
</clipPath>
<clipPath id="clip1">
<rect width="44" height="44" fill="white"/>
</clipPath>
</defs>
</svg>
