<svg width="44" height="44" viewBox="0 0 44 44" fill="none" xmlns="http://www.w3.org/2000/svg">
<rect width="44" height="44" fill="white"/>
<rect width="44" height="44" rx="7" fill="#CF649A"/>
<path d="M36.1452 22.4647C34.9192 22.4701 33.8574 22.7657 32.9708 23.2036C32.6478 22.5521 32.3139 21.983 32.2591 21.5561C32.1936 21.058 32.1223 20.7625 32.199 20.1714C32.2757 19.5801 32.6204 18.7427 32.615 18.6826C32.6096 18.6224 32.5383 18.3213 31.8323 18.3158C31.1263 18.3104 30.5188 18.4526 30.4476 18.6387C30.3763 18.8248 30.2396 19.2464 30.1575 19.6842C30.0316 20.3246 28.7453 22.6125 28.0173 23.8056C27.7765 23.3405 27.5741 22.9299 27.5302 22.6015C27.4645 22.1033 27.3934 21.8079 27.47 21.2168C27.5466 20.6255 27.8914 19.7881 27.8859 19.728C27.8804 19.6678 27.8093 19.3667 27.1033 19.3612C26.3972 19.3558 25.7898 19.498 25.7185 19.6842C25.6474 19.8702 25.5707 20.3081 25.4284 20.7297C25.2862 21.151 23.573 24.9604 23.1242 25.9512C22.8942 26.4546 22.6973 26.8597 22.5549 27.1334C22.5332 27.1771 22.5167 27.2046 22.5057 27.2265C22.5221 27.1992 22.5332 27.1717 22.5332 27.1828C22.4127 27.418 22.3415 27.5494 22.3415 27.5494V27.5548C22.2484 27.7299 22.1444 27.8886 22.0952 27.8886C22.0623 27.8886 21.9913 27.429 22.1117 26.7995C22.3689 25.4749 22.9764 23.4171 22.9709 23.3459C22.9654 23.3075 23.0858 22.9518 22.5713 22.7602C22.0733 22.5796 21.8926 22.8807 21.8489 22.8807C21.8052 22.8807 21.7723 22.9902 21.7723 22.9902C21.7723 22.9902 22.3251 20.6695 20.7104 20.6695C19.7034 20.6695 18.3023 21.7752 17.6127 22.7768C17.1803 23.0121 16.2442 23.5211 15.2591 24.0629C14.8815 24.271 14.4928 24.4843 14.1261 24.6869C14.0988 24.6594 14.0769 24.6321 14.0495 24.6047C12.0901 22.5141 8.4722 21.0362 8.62554 18.2283C8.68023 17.2048 9.03603 14.5175 15.5821 11.2554C20.946 8.58443 25.237 9.31789 25.976 10.9489C27.0377 13.2751 23.6825 17.6045 18.1108 18.2283C15.9871 18.4637 14.8706 17.6427 14.5915 17.3363C14.3013 17.0134 14.2575 16.9969 14.1481 17.0571C13.9674 17.1556 14.0824 17.4402 14.1481 17.6099C14.3123 18.0422 14.9964 18.8085 16.1623 19.1917C17.1857 19.5255 19.6761 19.7117 22.6863 18.5458C26.0688 17.2431 28.7016 13.6143 27.9298 10.5767C27.1417 7.48984 22.0242 6.47721 17.1803 8.1958C14.2959 9.21932 11.1762 10.8285 8.93205 12.9247C6.26657 15.4206 5.8397 17.5934 6.01475 18.5021C6.63875 21.7258 11.083 23.8276 12.8618 25.3819C12.7742 25.4312 12.6921 25.475 12.6156 25.5188C11.7234 25.9621 8.33547 27.7354 7.48707 29.6075C6.52936 31.7311 7.64574 33.2525 8.3792 33.4606C10.667 34.0955 13.0096 32.9516 14.2685 31.0742C15.5272 29.1969 15.3741 26.7449 14.7939 25.6283C14.7884 25.6119 14.7775 25.6011 14.7721 25.5845C15.0019 25.4477 15.2372 25.3109 15.4726 25.1741C15.9268 24.9059 16.3702 24.6594 16.7588 24.4462C16.5398 25.0373 16.3811 25.7485 16.299 26.7777C16.2005 27.9817 16.6986 29.5417 17.3445 30.1547C17.629 30.4229 17.9738 30.4285 18.1873 30.4285C18.9426 30.4285 19.2819 29.8044 19.6596 29.06C20.1248 28.1513 20.5353 27.095 20.5353 27.095C20.5353 27.095 20.0209 29.9522 21.4274 29.9522C21.9419 29.9522 22.4565 29.2899 22.6863 28.9506V28.956C22.6863 28.956 22.6973 28.9342 22.7246 28.8905C22.7793 28.8083 22.8067 28.759 22.8067 28.759V28.7425C23.0146 28.3868 23.469 27.5712 24.153 26.2248C25.0398 24.4842 25.8881 22.3113 25.8881 22.3113C25.8881 22.3113 25.9647 22.8424 26.2276 23.7235C26.3807 24.2435 26.7036 24.8127 26.9609 25.3655C26.753 25.6501 26.627 25.8144 26.627 25.8144C26.627 25.8144 26.627 25.8198 26.6323 25.8252C26.4682 26.0443 26.2822 26.2797 26.0906 26.5096C25.39 27.3414 24.558 28.2939 24.4486 28.5675C24.3172 28.8905 24.3501 29.1311 24.6019 29.3173C24.7879 29.4597 25.1164 29.4815 25.4611 29.4542C26.0906 29.4103 26.5339 29.2572 26.7474 29.1585C27.0866 29.0383 27.4808 28.8465 27.853 28.5784C28.5372 28.075 28.9532 27.3525 28.9148 26.4001C28.8929 25.8747 28.7231 25.3492 28.5152 24.8567C28.5754 24.769 28.6411 24.6759 28.7013 24.583C29.7852 23.001 30.6225 21.2662 30.6225 21.2662C30.6225 21.2662 30.6992 21.797 30.9618 22.6782C31.0932 23.1216 31.3504 23.6087 31.5857 24.0848C30.5677 24.9113 29.9384 25.8693 29.7194 26.4985C29.3143 27.6644 29.6318 28.1897 30.2283 28.3104C30.4965 28.365 30.8797 28.2391 31.1643 28.1186C31.5201 27.9982 31.947 27.8066 32.3465 27.5111C33.0307 27.0077 33.693 26.3015 33.6493 25.3437C33.6328 24.9113 33.5124 24.4789 33.3537 24.0629C34.2129 23.7018 35.3296 23.5046 36.7526 23.6689C39.8012 24.0246 40.3977 25.9293 40.2828 26.7229C40.168 27.5221 39.5276 27.96 39.3141 28.0913C39.1005 28.2227 39.035 28.272 39.0515 28.3705C39.0788 28.5127 39.1772 28.5073 39.3578 28.4744C39.6097 28.4306 40.9561 27.8285 41.0162 26.3562C41.1039 24.4952 39.3143 22.4483 36.1452 22.4647ZM12.6484 30.3845C11.6414 31.4847 10.2293 31.9006 9.62179 31.5503C8.97044 31.1728 9.22768 29.5526 10.4701 28.3813C11.2254 27.6698 12.1997 27.0131 12.8455 26.6081C12.9933 26.5205 13.2068 26.3891 13.4695 26.2304C13.5133 26.2032 13.5352 26.1922 13.5352 26.1922C13.5844 26.1592 13.6392 26.1319 13.6939 26.099C14.1481 27.7629 13.7102 29.2297 12.6484 30.3845ZM20.0046 25.3819C19.6542 26.2411 18.9153 28.4306 18.4666 28.3156C18.0835 28.217 17.848 26.5477 18.39 24.9059C18.6636 24.0793 19.2437 23.0942 19.5887 22.7111C20.1414 22.0925 20.7489 21.8955 20.8913 22.1418C21.0828 22.4647 20.2234 24.8456 20.0046 25.3819ZM26.0798 28.2829C25.9321 28.3595 25.7952 28.4087 25.7296 28.3704C25.6803 28.343 25.7898 28.239 25.7898 28.239C25.7898 28.239 26.5505 27.4235 26.8516 27.0512C27.0267 26.8323 27.2291 26.575 27.4481 26.2905C27.4481 26.3177 27.4535 26.3453 27.4535 26.3779C27.4482 27.3578 26.5068 28.0202 26.0798 28.2829ZM30.7651 27.2155C30.6556 27.1389 30.6719 26.8817 31.0387 26.0825C31.181 25.7705 31.5095 25.2451 32.0786 24.7415C32.1443 24.9495 32.1825 25.1465 32.1825 25.3326C32.177 26.5641 31.2959 27.0239 30.7651 27.2155Z" fill="white"/>
</svg>
