<svg width="44" height="44" viewBox="0 0 44 44" fill="none" xmlns="http://www.w3.org/2000/svg">
<rect width="44" height="44" fill="white"/>
<g clip-path="url(#clip0)">
<path d="M28.5303 22.2808C28.5484 22.5163 28.5484 22.7517 28.5484 22.9691V26.0667C28.5484 26.3565 28.5303 26.6101 28.4578 26.7913C28.2223 27.6064 27.7695 27.8238 27.389 27.8238C26.5014 27.8238 25.9037 26.6463 25.9037 24.4183C25.9037 22.5344 26.3022 20.9222 27.4072 20.9222C28.0412 20.9222 28.4216 21.5743 28.5303 22.2808ZM44 7.60807V36.41C44 40.6126 40.5945 44.0181 36.3919 44.0181H7.60807C3.40552 44.0181 0 40.6126 0 36.41V7.60807C0 3.40552 3.40552 0 7.60807 0H36.41C40.5945 0 44 3.40552 44 7.60807ZM22.1177 30.1968L18.9296 22.0815L21.9547 14.0568H18.8209L18.0058 17.0095C17.7884 17.8971 17.6072 18.6579 17.3355 19.6361H17.2812C17.0095 18.7303 16.8102 17.879 16.5385 17.0457L15.5965 14.0568H12.3178L15.2161 21.9366L12.191 30.1968H15.3067L16.1762 27.2804C16.4117 26.3746 16.6834 25.3965 16.937 24.3639H16.9914C17.2812 25.3965 17.5348 26.3022 17.8608 27.2441L18.8934 30.2149H22.1177V30.1968ZM31.7909 30.1968C31.7365 29.128 31.7003 27.8419 31.7003 26.7188V13.6221H28.5665V19.473H28.5121C28.2223 18.8028 27.5702 18.2956 26.5558 18.2956C24.5632 18.2956 22.788 20.2882 22.788 24.3639C22.788 27.6426 23.9292 30.396 26.429 30.396C27.4977 30.396 28.4397 29.7077 28.8744 28.8925H28.9288L29.0918 30.2149H31.7909V30.1968Z" fill="#DA4B9A"/>
</g>
<defs>
<clipPath id="clip0">
<rect width="44" height="44" fill="white"/>
</clipPath>
</defs>
</svg>
