<svg width="44" height="44" viewBox="0 0 44 44" fill="none" xmlns="http://www.w3.org/2000/svg">
<rect width="44" height="44" fill="white"/>
<rect width="44" height="44" rx="7" fill="#11B0B0"/>
<path d="M31.6667 19.875C30.0544 19.875 28.6663 20.7486 27.9216 22.0301C27.7269 22.0166 27.5365 22 27.3333 22C22.8963 22 18.6857 18.6849 17.1496 14.5812C18.0732 13.8019 18.6667 12.6606 18.6667 11.375C18.6667 9.029 16.7253 7.125 14.3333 7.125C11.9413 7.125 10 9.029 10 11.375C10 12.9428 10.8749 14.2989 12.1667 15.0367V28.9644C10.8749 29.7011 10 31.0562 10 32.625C10 34.97 11.9413 36.875 14.3333 36.875C16.7253 36.875 18.6667 34.97 18.6667 32.625C18.6667 31.0562 17.7917 29.7011 16.5 28.9644V21.3183C19.349 24.2744 23.2835 26.25 27.3333 26.25C27.5492 26.25 27.7269 26.2355 27.9216 26.2292C28.6706 27.5055 30.0586 28.375 31.6667 28.375C34.0576 28.375 36 26.47 36 24.125C36 21.779 34.0576 19.875 31.6667 19.875ZM14.3333 34.75C13.1379 34.75 12.1667 33.7996 12.1667 32.625C12.1667 31.4525 13.1379 30.5 14.3333 30.5C15.532 30.5 16.5 31.4525 16.5 32.625C16.5 33.7996 15.532 34.75 14.3333 34.75ZM14.3333 13.5C13.1379 13.5 12.1667 12.5506 12.1667 11.375C12.1667 10.1994 13.1379 9.25 14.3333 9.25C15.532 9.25 16.5 10.1994 16.5 11.375C16.5 12.5506 15.532 13.5 14.3333 13.5ZM31.6667 26.25C30.4712 26.25 29.5 25.2996 29.5 24.125C29.5 22.9494 30.4712 22 31.6667 22C32.8643 22 33.8333 22.9494 33.8333 24.125C33.8333 25.2996 32.8643 26.25 31.6667 26.25Z" fill="white"/>
</svg>
