<svg width="83" height="81" viewBox="0 0 83 81" fill="none" xmlns="http://www.w3.org/2000/svg">
<path d="M68.3021 81H14.6979C6.57083 81 0 74.4231 0 66.2885V14.7115C0 6.57692 6.57083 0 14.6979 0H68.3021C76.4292 0 83 6.57692 83 14.7115V66.2885C83 74.4231 76.4292 81 68.3021 81Z" fill="#FF26BE"/>
<path d="M66.9879 77.5385H16.0121C9.09541 77.5385 3.45833 71.8962 3.45833 64.9731V16.0269C3.45833 9.10386 9.09541 3.46155 16.0121 3.46155H66.9533C73.9046 3.46155 79.5071 9.10386 79.5071 16.0269V64.9385C79.5417 71.8962 73.9046 77.5385 66.9879 77.5385Z" fill="#2E001F"/>
<path d="M32.8196 37.9039L42.5029 56.5269C42.6758 56.8039 42.5721 57.0808 42.2954 57.0808H36.2779C35.8975 57.0808 35.7246 56.9769 35.5517 56.6308C33.3383 52.0615 31.0904 47.4923 28.7733 42.5769H28.7042C26.6292 47.2154 24.3467 52.0962 22.1333 56.6654C21.9604 56.9423 21.7875 57.0462 21.5108 57.0462H15.8046C15.4587 57.0462 15.4242 56.7692 15.5971 56.5615L25.0729 38.4923L15.9083 20.2154C15.7008 19.9385 15.9083 19.7308 16.1158 19.7308H22.0642C22.41 19.7308 22.5483 19.8 22.6867 20.1116C24.8654 24.6808 27.0787 29.3885 29.1537 33.9923H29.2229C31.2287 29.4231 33.4421 24.6808 35.5862 20.1462C35.7592 19.8692 35.8629 19.6962 36.2087 19.6962H41.7767C42.0533 19.6962 42.1571 19.9039 41.9842 20.1808L32.8196 37.9039Z" fill="#FFD9F2"/>
<path d="M44.1975 43.5462C44.1975 35.4808 49.5579 29.1808 58.0654 29.1808C58.7916 29.1808 59.172 29.1808 59.8637 29.2501V20.077C59.8637 19.8693 60.0366 19.7308 60.2095 19.7308H65.6737C65.9504 19.7308 66.0195 19.8347 66.0195 20.0078V51.7847C66.0195 52.7193 66.0195 53.8962 66.1925 55.177C66.1925 55.3847 66.1233 55.4539 65.9158 55.5578C63.0108 56.9424 59.9675 57.5655 57.0625 57.5655C49.5579 57.6001 44.1975 52.9616 44.1975 43.5462ZM59.8637 34.6847C59.3795 34.477 58.6879 34.3385 57.8579 34.3385C53.5004 34.3385 50.457 37.6962 50.457 43.2693C50.457 49.6385 53.5695 52.2001 57.4775 52.2001C58.3075 52.2001 59.2066 52.0962 59.8637 51.8193V34.6847Z" fill="#FFD9F2"/>
</svg>
