<svg width="44" height="44" viewBox="0 0 44 44" fill="none" xmlns="http://www.w3.org/2000/svg">
<g clip-path="url(#clip0)">
<rect width="44" height="44" fill="white"/>
<rect width="44" height="44" rx="7" fill="#FF3366"/>
<path d="M17.7084 11.4136C17.7454 13.5723 15.6421 13.9321 15.2546 13.9412C13.88 13.9412 12.7546 12.8343 12.7546 11.4505C12.7639 8.20319 17.6531 8.17561 17.7084 11.4136Z" fill="white"/>
<path d="M32.164 32.7601C26.1125 32.7601 29.0184 25.9337 29.8578 22.9264C31.1586 18.6459 25.6881 17.4836 24.3319 22.9909L21.952 32.5203H17.7916L18.5386 29.5223C15.6327 34.3007 9.81192 33.6181 9.81192 29.1255C9.82108 27.8062 9.89484 27.834 11.9337 19.5223H9L9.89484 16.2381H16.9426C13.8431 28.5718 13.9354 27.9448 13.9077 28.9869C13.9077 30.915 17.6807 30.2324 19.2029 26.8469L21.0295 19.5223H18.0499L18.9446 16.2381H25.2914L24.4704 19.9743C28.2064 13.0095 36.2691 15.5647 33.8616 23.4799C32.5515 28.1937 32.5146 28.157 32.4869 28.904C32.4869 30.3341 34.1012 30.989 35.4203 27.3451L37.0717 27.9633C36.1031 31.3488 34.3595 32.7601 32.164 32.7601Z" fill="white"/>
</g>
<defs>
<clipPath id="clip0">
<rect width="44" height="44" fill="white"/>
</clipPath>
</defs>
</svg>
