<svg width="44" height="44" viewBox="0 0 44 44" fill="none" xmlns="http://www.w3.org/2000/svg">
<rect width="44" height="44" fill="white"/>
<rect width="44" height="44" rx="7" fill="#525967"/>
<path d="M22 19.3262C21.6489 19.3262 21.3012 19.3954 20.9768 19.5298C20.6524 19.6641 20.3577 19.8611 20.1094 20.1094C19.8611 20.3577 19.6641 20.6524 19.5298 20.9768C19.3954 21.3012 19.3263 21.6489 19.3263 22C19.3263 22.3511 19.3954 22.6988 19.5298 23.0232C19.6641 23.3476 19.8611 23.6423 20.1094 23.8906C20.3577 24.1389 20.6524 24.3359 20.9768 24.4702C21.3012 24.6046 21.6489 24.6738 22 24.6738C22.3511 24.6738 22.6988 24.6046 23.0232 24.4702C23.3476 24.3359 23.6423 24.1389 23.8906 23.8906C24.1389 23.6423 24.3359 23.3476 24.4702 23.0232C24.6046 22.6988 24.6737 22.3511 24.6737 22C24.6737 21.6489 24.6046 21.3012 24.4702 20.9768C24.3359 20.6524 24.1389 20.3577 23.8906 20.1094C23.6423 19.8611 23.3476 19.6641 23.0232 19.5298C22.6988 19.3954 22.3511 19.3262 22 19.3262ZM14.51 27.3187L13.92 27.1688C9.5225 26.0575 7 24.1713 7 21.995C7 19.8187 9.5225 17.9325 13.92 16.8212L14.51 16.6725L14.6762 17.2575C15.1217 18.7921 15.6915 20.2879 16.38 21.73L16.5063 21.9962L16.38 22.2625C15.6904 23.7041 15.1205 25.2 14.6762 26.735L14.51 27.3187ZM13.6462 18.1875C10.3037 19.1262 8.2525 20.5625 8.2525 21.995C8.2525 23.4263 10.3037 24.8625 13.6462 25.8025C14.055 24.5024 14.5486 23.2305 15.1238 21.995C14.5479 20.7598 14.0544 19.4878 13.6462 18.1875V18.1875ZM29.49 27.3187L29.3237 26.7325C28.8787 25.1979 28.3085 23.7025 27.6188 22.2612L27.4925 21.995L27.6188 21.7287C28.3082 20.287 28.8784 18.7911 29.3237 17.2562L29.49 16.6712L30.0813 16.82C34.4775 17.9312 37 19.8175 37 21.995C37 24.1725 34.4775 26.0575 30.0813 27.1688L29.49 27.3187V27.3187ZM28.8762 21.995C29.4762 23.2938 29.9725 24.57 30.3538 25.8025C33.6975 24.8625 35.7475 23.4263 35.7475 21.995C35.7475 20.5625 33.6963 19.1275 30.3538 18.1875C29.9455 19.4878 29.4519 20.7597 28.8762 21.995V21.995ZM13.6375 18.1812L13.4713 17.5975C12.235 13.24 12.61 10.1175 14.5 9.0275C16.3538 7.9575 19.33 9.22125 22.4488 12.4225L22.8738 12.8587L22.4488 13.295C21.3406 14.447 20.3281 15.6874 19.4213 17.0037L19.2525 17.245L18.9588 17.27C17.3636 17.3957 15.7814 17.6507 14.2275 18.0325L13.6375 18.1812V18.1812ZM16.0075 9.89375C15.6725 9.89375 15.3762 9.96625 15.1262 10.11C13.8837 10.8262 13.6637 13.3162 14.52 16.6762C15.852 16.3799 17.202 16.1707 18.5612 16.05C19.3455 14.9349 20.2024 13.8726 21.1262 12.87C19.1762 10.9712 17.33 9.89375 16.0075 9.89375V9.89375ZM27.9938 35.3463C27.9925 35.3463 27.9925 35.3463 27.9938 35.3463C26.2125 35.3463 23.925 34.005 21.5512 31.5675L21.1262 31.1313L21.5512 30.695C22.6591 29.5426 23.6712 28.3019 24.5775 26.985L24.7462 26.7438L25.0387 26.7188C26.6347 26.5937 28.2178 26.3391 29.7725 25.9575L30.3625 25.8088L30.53 26.3938C31.7637 30.7488 31.39 33.8725 29.5 34.9613C29.0409 35.2208 28.5211 35.3537 27.9938 35.3463V35.3463ZM22.8738 31.12C24.8238 33.0188 26.67 34.0963 27.9925 34.0963H27.9938C28.3275 34.0963 28.625 34.0238 28.8738 33.88C30.1163 33.1638 30.3375 30.6725 29.48 27.3125C28.1476 27.6092 26.7972 27.8184 25.4375 27.9388C24.6542 29.0547 23.7977 30.1174 22.8738 31.12V31.12ZM30.3625 18.1812L29.7725 18.0325C28.218 17.6496 26.6348 17.3946 25.0387 17.27L24.7462 17.245L24.5775 17.0037C23.6717 15.6869 22.6596 14.4465 21.5512 13.295L21.1262 12.8587L21.5512 12.4225C24.6687 9.2225 27.6437 7.95875 29.5 9.0275C31.39 10.1175 31.765 13.24 30.53 17.5962L30.3625 18.1812ZM25.4375 16.05C26.865 16.18 28.2212 16.3912 29.48 16.6762C30.3375 13.3162 30.1163 10.8262 28.8738 10.11C27.6388 9.39625 25.3175 10.49 22.8738 12.87C23.7972 13.8726 24.6536 14.9349 25.4375 16.05V16.05ZM16.0075 35.3463C15.4797 35.3539 14.9595 35.221 14.5 34.9613C12.61 33.8725 12.235 30.75 13.4713 26.3938L13.6363 25.8088L14.2263 25.9575C15.67 26.3213 17.2625 26.5775 18.9575 26.7188L19.2512 26.7438L19.4188 26.985C20.3257 28.3017 21.3382 29.5424 22.4463 30.695L22.8712 31.1313L22.4463 31.5675C20.0738 34.005 17.7862 35.3463 16.0075 35.3463V35.3463ZM14.52 27.3125C13.6625 30.6725 13.8837 33.1638 15.1262 33.88C16.36 34.5838 18.68 33.4988 21.1262 31.12C20.2028 30.1167 19.3459 29.054 18.5612 27.9388C17.2019 27.8185 15.8519 27.6093 14.52 27.3125V27.3125ZM22 28.0975C20.9712 28.0975 19.9138 28.0525 18.855 27.965L18.5612 27.94L18.3925 27.6988C17.7936 26.8383 17.2307 25.9533 16.705 25.0463C16.1809 24.1384 15.6947 23.2093 15.2475 22.2612L15.1225 21.995L15.2475 21.7287C15.6946 20.7806 16.1808 19.8515 16.705 18.9437C17.2225 18.0487 17.7913 17.1562 18.3925 16.2912L18.5612 16.05L18.855 16.025C20.9483 15.8475 23.0529 15.8475 25.1463 16.025L25.4388 16.05L25.6063 16.2912C26.8052 18.0126 27.8577 19.8315 28.7525 21.7287L28.8788 21.995L28.7525 22.2612C27.8598 24.1597 26.8073 25.9787 25.6063 27.6988L25.4388 27.94L25.1463 27.965C24.0875 28.0525 23.0288 28.0975 22 28.0975V28.0975ZM19.2538 26.7425C21.1038 26.8813 22.8963 26.8813 24.7475 26.7425C25.781 25.2316 26.6987 23.6445 27.4925 21.995C26.7001 20.3445 25.7819 18.7573 24.7462 17.2475C22.918 17.1087 21.082 17.1087 19.2538 17.2475C18.2176 18.757 17.2995 20.3442 16.5075 21.995C17.3022 23.6443 18.2202 25.2313 19.2538 26.7425V26.7425Z" fill="#61DAFB"/>
</svg>
