<svg width="44" height="44" viewBox="0 0 44 44" fill="none" xmlns="http://www.w3.org/2000/svg">
<g clip-path="url(#clip0)">
<rect width="44" height="44" fill="white"/>
<path d="M37 0H7.5C3.5 0 0 3.5 0 7.5V36C0 40.5 3.5 44 7 44H37C40.5 44 44 40.5 44 37V7.5C44 3.5 40.5 0 37 0Z" fill="#12A5D7"/>
<path d="M8.2 22C8.2 27.428 11.42 32.212 16.02 34.42L9.396 16.388C8.66 18.136 8.2 19.976 8.2 22Z" fill="white"/>
<path d="M31.292 21.264C31.292 19.516 30.648 18.412 30.188 17.492C29.452 16.388 28.808 15.376 28.808 14.272C28.808 12.984 29.728 11.788 31.108 11.788C31.2 11.788 31.2 11.788 31.292 11.788C28.9 9.58 25.588 8.2 22 8.2C17.216 8.2 12.892 10.684 10.5 14.456C10.868 14.456 11.144 14.456 11.42 14.456C12.892 14.456 15.1 14.272 15.1 14.272C15.836 14.272 15.928 15.284 15.192 15.376C15.192 15.376 14.456 15.468 13.628 15.468L18.688 30.372L21.724 21.356L19.424 15.56C18.688 15.56 17.952 15.468 17.952 15.468C17.216 15.468 17.308 14.272 18.044 14.364C18.044 14.364 20.344 14.548 21.724 14.548C23.196 14.548 25.404 14.364 25.404 14.364C26.14 14.364 26.232 15.376 25.496 15.468C25.496 15.468 24.76 15.56 23.932 15.56L28.9 30.372L30.28 25.772C30.832 23.84 31.292 22.46 31.292 21.264Z" fill="white"/>
<path d="M22.276 23.196L18.136 35.248C19.332 35.616 20.712 35.8 22 35.8C23.564 35.8 25.128 35.524 26.6 34.972C26.6 34.88 26.508 34.88 26.508 34.788L22.276 23.196Z" fill="white"/>
<path d="M34.144 15.376C34.236 15.836 34.236 16.296 34.236 16.756C34.236 18.136 33.96 19.7 33.224 21.724L28.9 33.96C33.04 31.568 35.8 27.06 35.8 22C35.8 19.608 35.156 17.308 34.144 15.376Z" fill="white"/>
</g>
<defs>
<clipPath id="clip0">
<rect width="44" height="44" fill="white"/>
</clipPath>
</defs>
</svg>
