<svg width="82" height="82" viewBox="0 0 82 82" fill="none" xmlns="http://www.w3.org/2000/svg">
<path d="M41 33.6918C40.0403 33.6918 39.0899 33.8808 38.2033 34.2481C37.3166 34.6153 36.5109 35.1537 35.8323 35.8323C35.1537 36.5109 34.6153 37.3166 34.2481 38.2033C33.8808 39.09 33.6917 40.0403 33.6917 41C33.6917 41.9598 33.8808 42.9101 34.2481 43.7968C34.6153 44.6834 35.1537 45.4891 35.8323 46.1677C36.5109 46.8464 37.3166 47.3847 38.2033 47.752C39.0899 48.1192 40.0403 48.3083 41 48.3083C41.9597 48.3083 42.9101 48.1192 43.7967 47.752C44.6834 47.3847 45.4891 46.8464 46.1677 46.1677C46.8463 45.4891 47.3847 44.6834 47.7519 43.7968C48.1192 42.9101 48.3083 41.9598 48.3083 41C48.3083 40.0403 48.1192 39.09 47.7519 38.2033C47.3847 37.3166 46.8463 36.5109 46.1677 35.8323C45.4891 35.1537 44.6834 34.6153 43.7967 34.2481C42.9101 33.8808 41.9597 33.6918 41 33.6918ZM20.5273 55.5379L18.9147 55.1279C6.89483 52.0905 0 46.9348 0 40.9864C0 35.0379 6.89483 29.8822 18.9147 26.8448L20.5273 26.4382L20.9818 28.0372C22.1994 32.2319 23.7569 36.3203 25.6387 40.262L25.9838 40.9898L25.6387 41.7175C23.7537 45.6578 22.1961 49.7466 20.9818 53.9424L20.5273 55.5379ZM18.1664 30.5792C9.03025 33.1451 3.4235 37.0709 3.4235 40.9864C3.4235 44.8984 9.03025 48.8242 18.1664 51.3935C19.2838 47.84 20.6328 44.3634 22.2049 40.9864C20.631 37.61 19.2819 34.1334 18.1664 30.5792ZM61.4727 55.5379L61.0182 53.9355C59.8018 49.7411 58.2432 45.6535 56.3579 41.7141L56.0128 40.9864L56.3579 40.2586C58.2424 36.3177 59.8011 32.2291 61.0182 28.0338L61.4727 26.4348L63.0888 26.8413C75.1052 29.8788 82 35.0345 82 40.9864C82 46.9382 75.1052 52.0905 63.0888 55.1279L61.4727 55.5379ZM59.7951 40.9864C61.4351 44.5363 62.7915 48.0247 63.8336 51.3935C72.9732 48.8242 78.5765 44.8984 78.5765 40.9864C78.5765 37.0709 72.9698 33.1485 63.8336 30.5792C62.7178 34.1333 61.3687 37.6099 59.7951 40.9864ZM18.1425 30.5621L17.6881 28.9665C14.309 17.056 15.334 8.52118 20.5 5.54185C25.5669 2.61718 33.702 6.07143 42.2266 14.8215L43.3883 16.0139L42.2266 17.2063C39.1976 20.3552 36.43 23.7455 33.9514 27.3436L33.4902 28.003L32.6873 28.0713C28.3273 28.4151 24.0024 29.1121 19.7552 30.1555L18.1425 30.5621ZM24.6205 7.9096C23.7048 7.9096 22.8951 8.10776 22.2118 8.50068C18.8156 10.4584 18.2143 17.2644 20.5547 26.4484C24.1956 25.6384 27.8854 25.0667 31.6007 24.7367C33.7444 21.6886 36.0865 18.785 38.6118 16.0447C33.2817 10.8548 28.2353 7.9096 24.6205 7.9096ZM57.3829 77.4798C57.3795 77.4798 57.3795 77.4798 57.3829 77.4798C52.5142 77.4798 46.2617 73.8137 39.7734 67.1512L38.6118 65.9588L39.7734 64.7663C42.8017 61.6165 45.5681 58.2251 48.0452 54.6257L48.5064 53.9663L49.3059 53.8979C53.6681 53.5561 57.9954 52.8602 62.2448 51.8172L63.8575 51.4106L64.3153 53.0096C67.6876 64.9133 66.666 73.4515 61.5 76.4274C60.2452 77.1369 58.8243 77.5001 57.3829 77.4798ZM43.3883 65.928C48.7183 71.1179 53.7647 74.0631 57.3795 74.0631H57.3829C58.2952 74.0631 59.1083 73.8649 59.7883 73.472C63.1844 71.5143 63.7892 64.7049 61.4453 55.5209C57.8035 56.332 54.1124 56.9038 50.3958 57.2326C48.2547 60.2828 45.9137 63.1876 43.3883 65.928ZM63.8575 30.5621L62.2448 30.1555C57.9959 29.1091 53.6685 28.412 49.3059 28.0713L48.5064 28.003L48.0452 27.3436C45.5693 23.7443 42.8028 20.3539 39.7734 17.2063L38.6118 16.0139L39.7734 14.8215C48.2946 6.07485 56.4263 2.6206 61.5 5.54185C66.666 8.52118 67.691 17.056 64.3153 28.9631L63.8575 30.5621ZM50.3958 24.7367C54.2977 25.092 58.0047 25.6694 61.4453 26.4484C63.7892 17.2644 63.1844 10.4584 59.7883 8.50068C56.4126 6.54976 50.0678 9.53935 43.3883 16.0447C45.9123 18.7851 48.2532 21.6887 50.3958 24.7367ZM24.6205 77.4798C23.178 77.5007 21.7558 77.1375 20.5 76.4274C15.334 73.4515 14.309 64.9167 17.6881 53.0096L18.1391 51.4106L19.7518 51.8172C23.698 52.8114 28.0508 53.5119 32.6838 53.8979L33.4867 53.9663L33.9446 54.6257C36.4236 58.2246 39.1911 61.616 42.2198 64.7663L43.3814 65.9588L42.2198 67.1512C35.7349 73.8137 29.4824 77.4798 24.6205 77.4798ZM20.5547 55.5209C18.2108 64.7049 18.8156 71.5143 22.2118 73.472C25.584 75.3956 31.9253 72.4299 38.6118 65.928C36.0875 63.1856 33.7455 60.2809 31.6007 57.2326C27.8853 56.904 24.1953 56.3322 20.5547 55.5209ZM41 57.6665C38.1881 57.6665 35.2976 57.5435 32.4037 57.3044L31.6007 57.236L31.1395 56.5766C29.5026 54.2246 27.9638 51.8058 26.527 49.3264C25.0945 46.8451 23.7654 44.3055 22.5432 41.7141L22.2015 40.9864L22.5432 40.2586C23.7652 37.6671 25.0943 35.1275 26.527 32.6463C27.9415 30.1999 29.4961 27.7604 31.1395 25.3961L31.6007 24.7367L32.4037 24.6683C38.1254 24.1832 43.878 24.1832 49.5998 24.6683L50.3993 24.7367L50.8571 25.3961C54.1342 30.1011 57.0109 35.0727 59.4568 40.2586L59.8019 40.9864L59.4568 41.7141C57.0168 46.9031 54.1398 51.8752 50.8571 56.5766L50.3993 57.236L49.5998 57.3044C46.7058 57.5435 43.8119 57.6665 41 57.6665ZM33.4936 53.9629C38.5503 54.3421 43.4498 54.3421 48.5098 53.9629C51.3348 49.833 53.843 45.4951 56.0128 40.9864C53.8469 36.4749 51.3373 32.1366 48.5064 28.0098C43.5093 27.6306 38.4907 27.6306 33.4936 28.0098C30.6614 32.1359 28.1519 36.4742 25.9872 40.9864C28.1593 45.4945 30.6686 49.8323 33.4936 53.9629Z" fill="black"/>
</svg>
