<svg width="44" height="44" viewBox="0 0 44 44" fill="none" xmlns="http://www.w3.org/2000/svg">
<g clip-path="url(#clip0)">
<rect width="44" height="44" fill="white"/>
<path d="M37.586 0H6.41399C2.87164 0 0 2.87164 0 6.41399V37.586C0 41.1284 2.87164 44 6.41399 44H37.586C41.1284 44 44 41.1284 44 37.586V6.41399C44 2.87164 41.1284 0 37.586 0Z" fill="#525967"/>
<path d="M37.586 1.9242C38.7768 1.9242 39.9188 2.39723 40.7608 3.23923C41.6028 4.08123 42.0758 5.22323 42.0758 6.41399V37.586C42.0758 38.7768 41.6028 39.9188 40.7608 40.7608C39.9188 41.6028 38.7768 42.0758 37.586 42.0758H6.41399C5.22323 42.0758 4.08123 41.6028 3.23923 40.7608C2.39723 39.9188 1.9242 38.7768 1.9242 37.586V6.41399C1.9242 5.22323 2.39723 4.08123 3.23923 3.23923C4.08123 2.39723 5.22323 1.9242 6.41399 1.9242H37.586ZM37.586 0H6.41399C4.7129 0 3.08147 0.675758 1.87861 1.87861C0.675758 3.08147 0 4.7129 0 6.41399V37.586C0 39.2871 0.675758 40.9185 1.87861 42.1214C3.08147 43.3242 4.7129 44 6.41399 44H37.586C39.2871 44 40.9185 43.3242 42.1214 42.1214C43.3242 40.9185 44 39.2871 44 37.586V6.41399C44 4.7129 43.3242 3.08147 42.1214 1.87861C40.9185 0.675758 39.2871 0 37.586 0V0Z" fill="#454B57"/>
<path d="M16.516 38.4519C17.2362 38.4519 17.9493 38.31 18.6147 38.0345C19.28 37.7589 19.8845 37.3549 20.3938 36.8457C20.903 36.3364 21.307 35.7319 21.5826 35.0666C21.8581 34.4012 22 33.6881 22 32.9679V27.484H16.516C15.0616 27.484 13.6667 28.0617 12.6383 29.0902C11.6098 30.1186 11.0321 31.5135 11.0321 32.9679C11.0321 34.4224 11.6098 35.8172 12.6383 36.8457C13.6667 37.8741 15.0616 38.4519 16.516 38.4519V38.4519Z" fill="#0ACF83"/>
<path d="M11.0321 22C11.0321 20.5456 11.6098 19.1507 12.6383 18.1223C13.6667 17.0938 15.0616 16.516 16.516 16.516H22V27.484H16.516C15.0616 27.484 13.6667 26.9062 12.6383 25.8777C11.6098 24.8493 11.0321 23.4544 11.0321 22Z" fill="#A259FF"/>
<path d="M11.0321 11.0321C11.0321 9.57764 11.6098 8.18278 12.6383 7.15433C13.6667 6.12589 15.0616 5.54812 16.516 5.54812H22V16.516H16.516C15.0616 16.516 13.6667 15.9383 12.6383 14.9098C11.6098 13.8814 11.0321 12.4865 11.0321 11.0321V11.0321Z" fill="#F24E1E"/>
<path d="M22 5.58016H27.484C28.9384 5.58016 30.3333 6.15794 31.3617 7.18638C32.3902 8.21482 32.9679 9.60969 32.9679 11.0641C32.9679 12.5186 32.3902 13.9134 31.3617 14.9419C30.3333 15.9703 28.9384 16.5481 27.484 16.5481H22V5.58016Z" fill="#FF7262"/>
<path d="M32.9679 22C32.9679 23.0846 32.6463 24.1449 32.0437 25.0467C31.4411 25.9486 30.5846 26.6515 29.5826 27.0665C28.5805 27.4816 27.4779 27.5902 26.4141 27.3786C25.3503 27.167 24.3732 26.6447 23.6062 25.8777C22.8393 25.1108 22.317 24.1337 22.1054 23.0699C21.8938 22.0061 22.0024 20.9034 22.4174 19.9014C22.8325 18.8993 23.5354 18.0428 24.4372 17.4403C25.3391 16.8377 26.3993 16.516 27.484 16.516C28.9384 16.516 30.3333 17.0938 31.3617 18.1223C32.3902 19.1507 32.9679 20.5456 32.9679 22Z" fill="#1ABCFE"/>
</g>
<defs>
<clipPath id="clip0">
<rect width="44" height="44" fill="white"/>
</clipPath>
</defs>
</svg>
